<svg id="Outline" xmlns="http://www.w3.org/2000/svg" width="50.619" height="45.052" viewBox="0 0 50.619 45.052">
  <path id="Tracé_530" data-name="Tracé 530" d="M67.5,61.121h4.012l-.588.588a2.73,2.73,0,1,0,3.861,3.861l4.449-4.449h1.387V62a.875.875,0,0,0,.875.875h8.748v-1.75H82.37v-10.5h22.744v-1.75H81.5a.875.875,0,0,0-.875.875v.875h-1.4A9.766,9.766,0,0,0,72.536,48H67.5A3.5,3.5,0,0,0,64,51.5v6.124A3.5,3.5,0,0,0,67.5,61.121ZM65.75,51.5a1.752,1.752,0,0,1,1.75-1.75h5.036a8.032,8.032,0,0,1,5.717,2.368.875.875,0,0,0,.619.256h1.75v7h-1.75a.875.875,0,0,0-.619.256l-4.705,4.705a.981.981,0,0,1-1.387-1.387l2.081-2.081a.875.875,0,0,0-.619-1.493H67.5a1.752,1.752,0,0,1-1.75-1.75Z" transform="translate(-59.743 -48)" fill="#d8ef29"/>
  <path id="Tracé_531" data-name="Tracé 531" d="M248,88h1.75v1.75H248Z" transform="translate(-223.623 -83.626)" fill="#d8ef29"/>
  <path id="Tracé_532" data-name="Tracé 532" d="M54.486,160.628l-2.006-3.474.8.215a2.731,2.731,0,1,0,1.413-5.275l-6.077-1.628-.694-1.2.758-.437a.875.875,0,0,0,.32-1.195l-4.453-7.713-1.515.875,4.016,6.955L37.959,153,26.587,133.3l-1.515.875,11.81,20.455a.875.875,0,0,0,1.195.32l.758-.437.7,1.21a9.766,9.766,0,0,0,1.072,7.1l2.518,4.362a3.476,3.476,0,0,0,2.125,1.63,3.518,3.518,0,0,0,.911.12,3.478,3.478,0,0,0,1.744-.47l5.3-3.062a3.5,3.5,0,0,0,1.28-4.78Zm-2.156,3.265-5.3,3.062a1.75,1.75,0,0,1-2.39-.64l-2.518-4.362a8.032,8.032,0,0,1-.808-6.135.875.875,0,0,0-.087-.664l-.875-1.515,6.061-3.5.875,1.515a.875.875,0,0,0,.531.408l6.427,1.722a.981.981,0,1,1-.508,1.9l-2.843-.762a.875.875,0,0,0-.984,1.282l3.062,5.3a1.752,1.752,0,0,1-.64,2.39Z" transform="translate(-25.072 -123.973)" fill="#d8ef29"/>
  <path id="Tracé_533" data-name="Tracé 533" d="M0,0H1.75V1.75H0Z" transform="matrix(0.866, -0.5, 0.5, 0.866, 12.653, 25.119)" fill="#d8ef29"/>
  <path id="Tracé_534" data-name="Tracé 534" d="M284.654,93.625l-5.3-3.062a3.5,3.5,0,0,0-4.78,1.281l-2.006,3.474-.215-.8a2.731,2.731,0,1,0-5.275,1.413l1.629,6.077-.694,1.2-.758-.437a.875.875,0,0,0-1.195.32l-4.4,7.628,1.515.875,3.967-6.871,9.091,5.249-11.372,19.7,1.515.875,11.81-20.455a.875.875,0,0,0-.32-1.195l-.758-.437.7-1.21a9.765,9.765,0,0,0,5.617-4.48l2.518-4.362A3.5,3.5,0,0,0,284.654,93.625Zm-.234,3.905-2.518,4.362a8.032,8.032,0,0,1-4.91,3.767.875.875,0,0,0-.531.408l-.875,1.515-6.061-3.5.875-1.515a.875.875,0,0,0,.087-.664l-1.722-6.427a.981.981,0,1,1,1.9-.508l.762,2.842a.875.875,0,0,0,1.6.211l3.062-5.3a1.752,1.752,0,0,1,2.39-.64l5.3,3.062a1.752,1.752,0,0,1,.64,2.39Z" transform="translate(-235.783 -85.493)" fill="#d8ef29"/>
  <path id="Tracé_535" data-name="Tracé 535" d="M0,0H1.75V1.75H0Z" transform="matrix(0.5, -0.866, 0.866, 0.5, 35.662, 25.761)" fill="#d8ef29"/>
</svg>
