<svg id="project-management" xmlns="http://www.w3.org/2000/svg" width="45.064" height="45.052" viewBox="0 0 45.064 45.052">
  <g id="Groupe_2320" data-name="Groupe 2320" transform="translate(0 0.186)">
    <g id="Groupe_2319" data-name="Groupe 2319">
      <path id="Tracé_518" data-name="Tracé 518" d="M44.423,13.7h0l-2.909-.415a.748.748,0,0,1-.343-1.338L43.52,10.18a.748.748,0,0,0,.15-1.047L40.978,5.544a.748.748,0,0,0-1.047-.15l-2.35,1.763a.748.748,0,0,1-1.192-.7L36.8,3.545a.748.748,0,0,0-.634-.846h0l-4.439-.634a.748.748,0,0,0-.846.634h0l-.416,2.909a.748.748,0,0,1-1.338.343L27.368,3.6a.748.748,0,0,0-1.047-.15L24.074,5.136a14.468,14.468,0,0,0-3.058,0A14.207,14.207,0,0,0,8.489,17.876c-.02.212-.028.422-.038.632H8.226a.748.748,0,0,0-.731.6l-.517,2.457-2.07-1.427a.748.748,0,0,0-.953.087L1.712,22.465a.748.748,0,0,0-.087.953l1.421,2.066L.588,26A.748.748,0,0,0,0,26.733v2.991a.748.748,0,0,0,.594.732l2.458.517L1.631,33.039a.748.748,0,0,0,.087.953l2.243,2.243a.748.748,0,0,0,.953.087L6.98,34.9,7.5,37.355a.748.748,0,0,0,.731.6h2.991a.748.748,0,0,0,.732-.594l.517-2.458,2.066,1.421a.748.748,0,0,0,.953-.087l1.161-1.165V37.2a2.981,2.981,0,0,0,1.5,2.575v4.155a2.991,2.991,0,0,0,2.991,2.991h2.991a2.991,2.991,0,0,0,2.991-2.991V39.777a2.981,2.981,0,0,0,1.5-2.575v-2.96a3.664,3.664,0,0,1,1.73-3.052,14.35,14.35,0,0,0,1.76-1.346l-1-1.114a12.73,12.73,0,0,1-1.576,1.2,5.151,5.151,0,0,0-2.412,4.308V37.2a1.5,1.5,0,0,1-1.5,1.5H19.639a1.5,1.5,0,0,1-1.5-1.5V34.18a5.031,5.031,0,0,0-2.372-4.22,12.674,12.674,0,0,1,6.7-23.4.814.814,0,0,0-.029.082.748.748,0,0,0,.143.554l1.762,2.35a.732.732,0,0,1,.045.83.743.743,0,0,1-.748.36l-2.909-.416a.748.748,0,0,0-.846.634h0l-.635,4.441a.748.748,0,0,0,.634.846h0l2.909.416a.748.748,0,0,1,.343,1.338l-2.35,1.762a.748.748,0,0,0-.15,1.047l2.692,3.589a.748.748,0,0,0,1.047.15l2.351-1.762a.748.748,0,0,1,1.188.7L27.5,26.389a.748.748,0,0,0,.634.846h0l4.442.635a.828.828,0,0,0,.105.007.748.748,0,0,0,.741-.642l.415-2.909a.748.748,0,0,1,1.338-.343l1.763,2.35a.748.748,0,0,0,1.047.15l3.589-2.692a.748.748,0,0,0,.15-1.047l-1.762-2.35a.735.735,0,0,1-.045-.83.726.726,0,0,1,.748-.359l2.909.415a.748.748,0,0,0,.846-.634h0l.634-4.442A.748.748,0,0,0,44.423,13.7ZM19.639,40.193h5.982v1.5H19.639Zm0,2.991h5.982v.748a1.5,1.5,0,0,1-1.5,1.5H21.135a1.5,1.5,0,0,1-1.5-1.5Zm-5.953-12.9a14.133,14.133,0,0,0,1.278.931,3.65,3.65,0,0,1,1.507,1.914l-1.6,1.6-1.553-1.071A1.5,1.5,0,0,0,11,34.587l-.392,1.867H8.832L8.441,34.59a1.5,1.5,0,0,0-2.312-.923L4.575,34.734,3.212,33.374l1.07-1.552a1.5,1.5,0,0,0-.923-2.313L1.5,29.117V27.34l1.864-.393a1.5,1.5,0,0,0,.923-2.308L3.212,23.082l1.362-1.359,1.555,1.071a1.5,1.5,0,0,0,2.311-.924l.131-.622a14.24,14.24,0,0,0,.593,2.536,4.487,4.487,0,1,0,4.522,6.505Zm-1.161-1.054a2.987,2.987,0,1,1-2.8-4h.028A14.162,14.162,0,0,0,12.525,29.235Zm30.519-11.2-2.168-.31a2.243,2.243,0,0,0-2.112,3.567l1.314,1.752-2.393,1.795L36.37,23.085a2.243,2.243,0,0,0-4.015,1.028l-.3,2.171-2.96-.423.31-2.168a2.243,2.243,0,0,0-3.567-2.112l-1.752,1.314L22.288,20.5l1.751-1.315a2.243,2.243,0,0,0-1.028-4.015l-2.168-.31.423-2.96,2.168.31a2.243,2.243,0,0,0,2.112-3.567L24.228,6.89,26.621,5.1l1.315,1.752A2.243,2.243,0,0,0,31.951,5.82l.31-2.168,2.96.422-.31,2.168a2.243,2.243,0,0,0,3.567,2.112L40.23,7.04l1.795,2.393-1.752,1.315A2.243,2.243,0,0,0,41.3,14.763l2.168.31Z" transform="translate(0 -2.057)" fill="#d8ef29"/>
    </g>
  </g>
  <g id="Groupe_2322" data-name="Groupe 2322" transform="translate(26.171 7.113)">
    <g id="Groupe_2321" data-name="Groupe 2321">
      <path id="Tracé_519" data-name="Tracé 519" d="M285.982,76.171a5.982,5.982,0,1,0,5.982,5.982A5.982,5.982,0,0,0,285.982,76.171Zm0,10.469a4.487,4.487,0,1,1,4.487-4.487A4.486,4.486,0,0,1,285.982,86.64Z" transform="translate(-280 -76.171)" fill="#d8ef29"/>
    </g>
  </g>
  <g id="Groupe_2324" data-name="Groupe 2324" transform="translate(21.882 33.087)">
    <g id="Groupe_2323" data-name="Groupe 2323">
      <rect id="Rectangle_68" data-name="Rectangle 68" width="1.496" height="2.243" fill="#d8ef29"/>
    </g>
  </g>
  <g id="Groupe_2326" data-name="Groupe 2326" transform="translate(12.155 8.527)">
    <g id="Groupe_2325" data-name="Groupe 2325">
      <path id="Tracé_520" data-name="Tracé 520" d="M137.249,108.508a8.973,8.973,0,0,1-1.515-15.952l-.8-1.265a10.469,10.469,0,0,0,1.771,18.609,4.774,4.774,0,0,1,3.066,4.457h1.5A6.257,6.257,0,0,0,137.249,108.508Z" transform="translate(-130.044 -91.291)" fill="#d8ef29"/>
    </g>
  </g>
  <g id="Groupe_2328" data-name="Groupe 2328" transform="translate(36.837 27.853)">
    <g id="Groupe_2327" data-name="Groupe 2327">
      <rect id="Rectangle_69" data-name="Rectangle 69" width="5.234" height="1.496" fill="#d8ef29"/>
    </g>
  </g>
  <g id="Groupe_2330" data-name="Groupe 2330" transform="translate(35.611 31.765)">
    <g id="Groupe_2329" data-name="Groupe 2329" transform="translate(0 0)">
      <rect id="Rectangle_70" data-name="Rectangle 70" width="1.496" height="5.84" transform="matrix(0.64, -0.768, 0.768, 0.64, 0, 1.149)" fill="#d8ef29"/>
    </g>
  </g>
  <g id="Groupe_2332" data-name="Groupe 2332" transform="translate(32.351 33.835)">
    <g id="Groupe_2331" data-name="Groupe 2331">
      <rect id="Rectangle_71" data-name="Rectangle 71" width="1.496" height="5.234" fill="#d8ef29"/>
    </g>
  </g>
  <g id="Groupe_2334" data-name="Groupe 2334" transform="translate(0.764 11.424)">
    <g id="Groupe_2333" data-name="Groupe 2333" transform="translate(0 0)">
      <rect id="Rectangle_72" data-name="Rectangle 72" width="6.166" height="1.495" transform="translate(0 1.495) rotate(-14.035)" fill="#d8ef29"/>
    </g>
  </g>
  <g id="Groupe_2336" data-name="Groupe 2336" transform="translate(2.006 4.065)">
    <g id="Groupe_2335" data-name="Groupe 2335" transform="translate(0 0)">
      <rect id="Rectangle_73" data-name="Rectangle 73" width="1.495" height="6.432" transform="matrix(0.581, -0.814, 0.814, 0.581, 0, 1.216)" fill="#d8ef29"/>
    </g>
  </g>
  <g id="Groupe_2338" data-name="Groupe 2338" transform="translate(8.413 0)">
    <g id="Groupe_2337" data-name="Groupe 2337">
      <rect id="Rectangle_74" data-name="Rectangle 74" width="1.496" height="6.174" transform="matrix(0.969, -0.248, 0.248, 0.969, 0, 0.37)" fill="#d8ef29"/>
    </g>
  </g>
</svg>
