<svg id="mother" xmlns="http://www.w3.org/2000/svg" width="42.99" height="47.856" viewBox="0 0 42.99 47.856">
  <path id="Tracé_508" data-name="Tracé 508" d="M96.866,37.1a.933.933,0,0,0,.692-.306h0a.934.934,0,1,0-.692.307Zm0,0" transform="translate(-87.011 -31.939)" fill="#d8ef29"/>
  <path id="Tracé_509" data-name="Tracé 509" d="M152.366,151.5a.935.935,0,0,0-.935-.935h0a.935.935,0,1,0,.935.935Zm0,0" transform="translate(-136.476 -136.49)" fill="#d8ef29"/>
  <path id="Tracé_510" data-name="Tracé 510" d="M211.435,152.432a.935.935,0,1,0,0-1.869h0a.935.935,0,0,0,0,1.869Zm0,0" transform="translate(-190.871 -136.49)" fill="#d8ef29"/>
  <path id="Tracé_511" data-name="Tracé 511" d="M167.933,196.848a2.764,2.764,0,0,0,3.639,0,.935.935,0,1,0-1.23-1.407.895.895,0,0,1-1.178,0,.935.935,0,1,0-1.23,1.407Zm0,0" transform="translate(-151.993 -176.964)" fill="#d8ef29"/>
  <path id="Tracé_512" data-name="Tracé 512" d="M71.95,412a.935.935,0,0,0-.935.935v7.478a.935.935,0,0,0,1.869,0v-7.478A.935.935,0,0,0,71.95,412Zm0,0" transform="translate(-64.425 -373.491)" fill="#d8ef29"/>
  <path id="Tracé_513" data-name="Tracé 513" d="M41.632,30.687c-.013-.019-.027-.037-.042-.054a8.574,8.574,0,0,0-6.454-3.189,6.582,6.582,0,0,0-4.727-9.8V12.2A12.191,12.191,0,0,0,18.259,0a11.962,11.962,0,0,0-4.726.966.935.935,0,0,0,.735,1.719,10.1,10.1,0,0,1,3.991-.815A10.319,10.319,0,0,1,28.54,12.2v6.309a.935.935,0,0,0,.935.935A4.7,4.7,0,0,1,32.4,27.809,8.486,8.486,0,0,0,30,28.982l-4.5-1.747-.007,0-2.078-.807a1.513,1.513,0,0,1-.962-1.223V22.811a12.014,12.014,0,0,0,1.07-.831A8.137,8.137,0,0,0,26.636,16V12.336A.935.935,0,0,0,25.7,11.4a8.246,8.246,0,0,1-5.259-1.717,5.058,5.058,0,0,0,.487-.7.935.935,0,1,0-1.621-.931,3.646,3.646,0,0,1-.769.916c-.018.014-.035.028-.052.044l-.016.015c-1.868,1.577-5.477,2.19-7.655,2.19a.935.935,0,0,0-.935.935V16A8.137,8.137,0,0,0,13,21.98a11.946,11.946,0,0,0,1.07.831V25.2a1.512,1.512,0,0,1-.962,1.223l-2.08.808h0L6.878,28.843a4.7,4.7,0,0,1,.164-9.4.935.935,0,0,0,.935-.935V12.2A10.244,10.244,0,0,1,8.81,8.142.935.935,0,1,0,7.093,7.4a12.1,12.1,0,0,0-.985,4.8v5.441a6.575,6.575,0,0,0-1.982,12.38,4.166,4.166,0,0,0-1.687,3.45V46.922a.935.935,0,0,0,1.869,0V33.474a2.182,2.182,0,0,1,1.264-2.119l5.569-2.161,4.726,4.748a3.378,3.378,0,0,0,4.781,0l4.726-4.748,3.064,1.189a8.519,8.519,0,0,0-1.734,3.1,7.91,7.91,0,0,0-2,1.445l-.01.01-.016.015-5.494,5.494a7.962,7.962,0,0,0-2.28,6.587.935.935,0,0,0,.927.827.993.993,0,0,0,.109-.006.935.935,0,0,0,.821-1.036,6.1,6.1,0,0,1,1.745-5.05l3.089-3.089a15.493,15.493,0,0,0,.639,4.61.935.935,0,0,0,1.8-.512c-.9-3.142-.635-5.536.028-6.559q.13-.127.267-.245c0,.019,0,.038,0,.057a8.58,8.58,0,0,0,8.586,8.582h.061c-.1.113-.2.224-.305.33L33.34,46.261a.935.935,0,0,0,1.322,1.322l1.324-1.324a7.915,7.915,0,0,0,1.475-2.038,8.579,8.579,0,0,0,4.172-13.533ZM11.751,16v-2.94a15.7,15.7,0,0,0,7.279-2.121,9.764,9.764,0,0,0,5.737,2.3V16c0,2.227-1.845,4.307-3.714,5.5a.836.836,0,0,0-.075.047,5.691,5.691,0,0,1-2.719.994,5.693,5.693,0,0,1-2.719-.994.836.836,0,0,0-.075-.047C13.6,20.3,11.751,18.223,11.751,16Zm7.573,16.627a1.508,1.508,0,0,1-2.131,0l-4.148-4.168.738-.286A3.355,3.355,0,0,0,15.938,25.2V23.853a6.1,6.1,0,0,0,2.321.554,6.1,6.1,0,0,0,2.321-.554V25.2a3.355,3.355,0,0,0,2.155,2.966l.738.286Zm10.835,8.152a6.673,6.673,0,0,1-1.967-4.75,6.777,6.777,0,0,1,.2-1.618c.006-.019.011-.039.015-.059a6.719,6.719,0,0,1,11.256-3.072c.153.153.3.311.43.474a1.191,1.191,0,0,1-.3,1.347,1.182,1.182,0,0,1-1.67,0,.935.935,0,0,0-1.322,1.322,3.05,3.05,0,0,0,4.314,0,3.306,3.306,0,0,0,.245-.278,6.716,6.716,0,0,1-11.195,6.635Zm0,0" transform="translate(-0.5 0)" fill="#d8ef29"/>
  <path id="Tracé_514" data-name="Tracé 514" d="M335.9,352.41a2.2,2.2,0,0,0-.986-.569.935.935,0,0,0-.484,1.806.33.33,0,0,1,.233.233.935.935,0,1,0,1.806-.483,2.2,2.2,0,0,0-.569-.986Zm0,0" transform="translate(-302.591 -318.926)" fill="#d8ef29"/>
  <path id="Tracé_515" data-name="Tracé 515" d="M374.839,391.348a2.2,2.2,0,0,0-.986-.569.935.935,0,0,0-.484,1.806.328.328,0,0,1,.233.233.935.935,0,0,0,1.806-.483A2.2,2.2,0,0,0,374.839,391.348Zm0,0" transform="translate(-337.89 -354.224)" fill="#d8ef29"/>
  <path id="Tracé_516" data-name="Tracé 516" d="M331.922,393.8a.218.218,0,0,1-.2-.2.935.935,0,1,0-1.865.125,2.086,2.086,0,0,0,1.943,1.942l.063,0a.935.935,0,0,0,.062-1.867Zm0,0" transform="translate(-299.068 -356.02)" fill="#d8ef29"/>
  <path id="Tracé_517" data-name="Tracé 517" d="M272.907,492.559a.936.936,0,1,0-.491,1.228.935.935,0,0,0,.491-1.228Zm0,0" transform="translate(-245.819 -446.007)" fill="#d8ef29"/>
</svg>
