<svg xmlns="http://www.w3.org/2000/svg" width="47.856" height="47.856" viewBox="0 0 47.856 47.856">
  <path id="Tracé_505" data-name="Tracé 505" d="M13.391,41.443A42.6,42.6,0,0,1,38.264,25.772h.005a41.659,41.659,0,0,1,8.651-.911.935.935,0,1,0,0-1.869,43.984,43.984,0,0,0-7.908.719V21.692a13.843,13.843,0,0,0,5.233-10.6A13.943,13.943,0,0,0,38.663.207a.935.935,0,0,0-1.172,0A13.944,13.944,0,0,0,31.91,11.094a13.844,13.844,0,0,0,5.233,10.6v2.4a44.258,44.258,0,0,0-5.24,1.54V20.159a.931.931,0,0,0-.272-.659h0L26.4,14.234a.936.936,0,0,0-.663-.276H15.047a.935.935,0,0,0-.663.276L9.15,19.5h0a.932.932,0,0,0-.272.659v3.569q-.977-.179-1.963-.314V20.082a10.668,10.668,0,0,0,3.956-8.117A10.766,10.766,0,0,0,6.566,3.556a.935.935,0,0,0-1.171,0,10.766,10.766,0,0,0-4.305,8.409,10.668,10.668,0,0,0,3.956,8.117V23.2Q3,23.008.933,23.006a.935.935,0,1,0,0,1.869A42.158,42.158,0,0,1,22.162,30.6a44.125,44.125,0,0,0-4.415,3.429A37.186,37.186,0,0,0,.933,29.969a.935.935,0,0,0,0,1.869,35.287,35.287,0,0,1,15.345,3.552,44.174,44.174,0,0,0-3.975,4.4,29.238,29.238,0,0,0-11.37-2.3.935.935,0,1,0,0,1.869,27.356,27.356,0,0,1,10.206,1.973Q10.17,42.682,9.3,44.1L7.878,46.435a.935.935,0,1,0,1.6.974L10.9,45.076a41.5,41.5,0,0,1,2.4-3.512.884.884,0,0,0,.092-.12ZM33.78,11.094a11.927,11.927,0,0,1,4.3-8.935,11.927,11.927,0,0,1,4.3,8.935,11.636,11.636,0,0,1-3.363,8.029V11.965a.935.935,0,0,0-1.869,0v7.158a11.634,11.634,0,0,1-3.363-8.029Zm-30.821.871A8.747,8.747,0,0,1,5.981,5.517,8.746,8.746,0,0,1,9,11.965a8.45,8.45,0,0,1-2.087,5.472v-6.22a.935.935,0,1,0-1.869,0v6.22a8.45,8.45,0,0,1-2.087-5.472Zm25.762,7.259H20.67l-3.376-3.4h8.051Zm-13.674-3,2.987,3H12.06Zm-4.3,4.874h8.6v5.944q-.65-.3-1.309-.577V23.321a.935.935,0,0,0-.935-.935H12.991a.935.935,0,0,0-.935.935v1.111q-.652-.17-1.309-.321Zm5.421,4.629q-1.112-.41-2.243-.759v-.708h2.243Zm5.047,2.229V21.093h8.818v5.264a43.869,43.869,0,0,0-4.682,2.272q-.727.408-1.437.845-1.325-.809-2.7-1.521Zm0,0" transform="translate(0.002 -0.001)" fill="#d8ef29"/>
</svg>
