<svg id="social-care_1_" data-name="social-care (1)" xmlns="http://www.w3.org/2000/svg" width="47.856" height="47.857" viewBox="0 0 47.856 47.857">
  <g id="Groupe_2340" data-name="Groupe 2340" transform="translate(7.162 44.005)">
    <g id="Groupe_2339" data-name="Groupe 2339">
      <path id="Tracé_521" data-name="Tracé 521" d="M79.728,473.167l-1.407-1.982a.935.935,0,1,0-1.524,1.082l1.407,1.982a.935.935,0,1,0,1.524-1.082Z" transform="translate(-76.624 -470.791)" fill="#d8ef29"/>
    </g>
  </g>
  <g id="Groupe_2342" data-name="Groupe 2342" transform="translate(0 14.623)">
    <g id="Groupe_2341" data-name="Groupe 2341">
      <path id="Tracé_522" data-name="Tracé 522" d="M21.051,188.557l-1.531-7.3a13.765,13.765,0,0,0-5.822-8.642l-3.27-2.2a3.289,3.289,0,0,0-4.169.426V159.581a3.129,3.129,0,0,0-5.087-2.44A3.114,3.114,0,0,0,0,159.581v14.493a9.054,9.054,0,0,0,1.68,5.269l1.667,2.348a.935.935,0,1,0,1.524-1.082L3.205,178.26a7.194,7.194,0,0,1-1.335-4.187V159.581a1.26,1.26,0,1,1,2.519,0v11.5a6.531,6.531,0,0,0,1.684,4.385c.047.056.094.111.145.165.621.658,1.351,1.433,2.038,2.163l.962,1.024.01.009,1.443,1.536a.935.935,0,1,0,1.363-1.28c-.017-.018-1.111-1.183-2.361-2.511l-2.143-2.281-.016-.018a1.577,1.577,0,0,1,.03-2.067,1.413,1.413,0,0,1,1.84-.235l3.269,2.2a11.905,11.905,0,0,1,5.035,7.474l1.531,7.3a.935.935,0,1,0,1.829-.384Z" transform="translate(-0.001 -156.451)" fill="#d8ef29"/>
    </g>
  </g>
  <g id="Groupe_2344" data-name="Groupe 2344" transform="translate(5.223 41.274)">
    <g id="Groupe_2343" data-name="Groupe 2343">
      <path id="Tracé_523" data-name="Tracé 523" d="M57.586,441.976l-.006-.008a.935.935,0,0,0-1.522,1.086l.006.008a.935.935,0,0,0,1.522-1.086Z" transform="translate(-55.884 -441.575)" fill="#d8ef29"/>
    </g>
  </g>
  <g id="Groupe_2346" data-name="Groupe 2346" transform="translate(26.786 14.624)">
    <g id="Groupe_2345" data-name="Groupe 2345">
      <path id="Tracé_524" data-name="Tracé 524" d="M306.479,157.143a3.129,3.129,0,0,0-5.087,2.44v11.263a3.289,3.289,0,0,0-4.169-.426l-3.27,2.2a13.765,13.765,0,0,0-5.822,8.642l-1.531,7.3a.935.935,0,1,0,1.829.384l1.531-7.3A11.905,11.905,0,0,1,295,174.171l3.27-2.2a1.413,1.413,0,0,1,1.84.235,1.577,1.577,0,0,1,.032,2.065l-.018.02-4.5,4.792a.935.935,0,1,0,1.363,1.28c.013-.013,3.832-4.074,4.453-4.732.051-.054.1-.109.145-.165a6.531,6.531,0,0,0,1.684-4.385v-11.5a1.26,1.26,0,1,1,2.519,0v14.493a7.194,7.194,0,0,1-1.335,4.187l-7.062,9.948a.935.935,0,1,0,1.524,1.082l7.062-9.948a9.054,9.054,0,0,0,1.68-5.269V159.583A3.115,3.115,0,0,0,306.479,157.143Z" transform="translate(-286.58 -156.454)" fill="#d8ef29"/>
    </g>
  </g>
  <g id="Groupe_2348" data-name="Groupe 2348" transform="translate(8.729 5.047)">
    <g id="Groupe_2347" data-name="Groupe 2347">
      <path id="Tracé_525" data-name="Tracé 525" d="M120.428,66.867l-1.663-.4v-.3a4.181,4.181,0,0,0,1.789-3.428V60.582a4.18,4.18,0,0,0-6.9-3.179,5.458,5.458,0,0,0-10.115.007,4.18,4.18,0,0,0-6.906,3.172v2.162a4.181,4.181,0,0,0,1.789,3.428v.3l-1.663.4A4.379,4.379,0,0,0,93.39,71.14v1.746a.935.935,0,0,0,.935.935h4.3c-.007.113-.011.227-.011.342v3.361a.935.935,0,0,0,.935.935h5.618a.935.935,0,0,0,0-1.869H104.2V74.657a.935.935,0,0,0-1.869,0v1.932h-1.849V74.162a3.87,3.87,0,0,1,2.977-3.775l2.565-.615,1.717,3.905a.935.935,0,0,0,.856.559h0a.935.935,0,0,0,.856-.558l1.715-3.9,2.557.611a3.87,3.87,0,0,1,2.98,3.776v2.424h-1.849V74.657a.935.935,0,0,0-1.869,0v1.932h-1.059a.935.935,0,1,0,0,1.869h5.712a.935.935,0,0,0,.935-.935V74.165c0-.116,0-.231-.011-.345h4.307a.935.935,0,0,0,.935-.935V71.14A4.379,4.379,0,0,0,120.428,66.867Zm-4.057-8.6a2.317,2.317,0,0,1,2.309,2.161h-1.3a6.813,6.813,0,0,1-3.134-.764A2.317,2.317,0,0,1,116.371,58.268Zm-2.314,4.339c0-.046,0-.091,0-.137v-.832a8.683,8.683,0,0,0,3.32.66h1.3v.445a2.314,2.314,0,1,1-4.628,0Zm-9.046-3.148h0a3.59,3.59,0,0,1,7.135-.571l-1.574-.925a.935.935,0,0,0-1.19.206,4.027,4.027,0,0,1-3.094,1.444h-1.278Zm-4.192-1.192a2.317,2.317,0,0,1,2.125,1.4,6.813,6.813,0,0,1-3.134.764h-1.3A2.317,2.317,0,0,1,100.819,58.268ZM98.505,62.3h1.3a8.683,8.683,0,0,0,3.323-.662v1.107a2.314,2.314,0,0,1-4.628,0Zm4.515,6.27a5.732,5.732,0,0,0-3.972,3.382H95.259V71.14A2.515,2.515,0,0,1,97.2,68.685l2.38-.569a.935.935,0,0,0,.718-.909v-.314a4.057,4.057,0,0,0,1.045,0v.267c0,.014,0,.028,0,.042a.936.936,0,0,0,.76.92l1.394.334Zm2.607-1.451a4.385,4.385,0,0,0-.748-.252l-1.67-.4v-.291a4.217,4.217,0,0,0,.81-.74,5.5,5.5,0,0,0,1.608,1.612Zm4.06,1.373-1.094,2.488-1.1-2.494v-.667a5.478,5.478,0,0,0,2.19,0Zm-1.086-2.43a3.594,3.594,0,0,1-3.59-3.59v-.987h1.278a5.889,5.889,0,0,0,3.972-1.534l1.928,1.132v1.526A3.594,3.594,0,0,1,108.6,66.061Zm2.955,1.06v-.063a5.5,5.5,0,0,0,1.621-1.616,4.217,4.217,0,0,0,.8.732v.291l-1.67.4A4.4,4.4,0,0,0,111.556,67.121Zm10.374,4.83h-3.8a5.731,5.731,0,0,0-3.975-3.38l-.469-.112,1.4-.336a.936.936,0,0,0,.764-.92c0-.007,0-.015,0-.022v-.287a4.058,4.058,0,0,0,1.045,0v.314a.935.935,0,0,0,.718.909l2.38.569a2.516,2.516,0,0,1,1.937,2.454Z" transform="translate(-93.39 -54)" fill="#d8ef29"/>
    </g>
  </g>
  <g id="Groupe_2350" data-name="Groupe 2350" transform="translate(22.993 27.636)">
    <g id="Groupe_2349" data-name="Groupe 2349">
      <path id="Tracé_526" data-name="Tracé 526" d="M247.6,295.943a.935.935,0,1,0,.274.662A.942.942,0,0,0,247.6,295.943Z" transform="translate(-246 -295.67)" fill="#d8ef29"/>
    </g>
  </g>
  <g id="Groupe_2352" data-name="Groupe 2352" transform="translate(22.993)">
    <g id="Groupe_2351" data-name="Groupe 2351">
      <path id="Tracé_527" data-name="Tracé 527" d="M246.928,0a.935.935,0,0,0-.935.935v1.4a.935.935,0,1,0,1.869,0V.935A.935.935,0,0,0,246.928,0Z" transform="translate(-245.993)" fill="#d8ef29"/>
    </g>
  </g>
  <g id="Groupe_2354" data-name="Groupe 2354" transform="translate(17.909 1.796)">
    <g id="Groupe_2353" data-name="Groupe 2353">
      <path id="Tracé_528" data-name="Tracé 528" d="M194.175,20.466l-.98-.98a.935.935,0,1,0-1.321,1.322l.981.98a.935.935,0,1,0,1.321-1.322Z" transform="translate(-191.599 -19.213)" fill="#d8ef29"/>
    </g>
  </g>
  <g id="Groupe_2356" data-name="Groupe 2356" transform="translate(27.082 1.82)">
    <g id="Groupe_2355" data-name="Groupe 2355">
      <path id="Tracé_529" data-name="Tracé 529" d="M292.314,19.743a.935.935,0,0,0-1.322,0l-.973.974a.935.935,0,1,0,1.322,1.321l.973-.974A.935.935,0,0,0,292.314,19.743Z" transform="translate(-289.746 -19.469)" fill="#d8ef29"/>
    </g>
  </g>
</svg>
