<svg xmlns="http://www.w3.org/2000/svg" width="19.871" height="16.177" viewBox="0 0 19.871 16.177">
  <path id="Tracé_36" data-name="Tracé 36" d="M21.871,5.787a8.435,8.435,0,0,1-2.345.636,4.1,4.1,0,0,0,1.8-2.255,8.157,8.157,0,0,1-2.593.994,4.074,4.074,0,0,0-6.955,3.716,11.565,11.565,0,0,1-8.4-4.262,4.133,4.133,0,0,0-.546,2.057A4.064,4.064,0,0,0,4.643,10.06a4.024,4.024,0,0,1-1.848-.507V9.6a4.074,4.074,0,0,0,3.279,3.974,3.9,3.9,0,0,1-1.093.169,4.869,4.869,0,0,1-.765-.07A4.084,4.084,0,0,0,8.021,16.5a8.167,8.167,0,0,1-5.027,1.749A7.88,7.88,0,0,1,2,18.187a11.5,11.5,0,0,0,6.25,1.838A11.515,11.515,0,0,0,19.884,8.42V7.894a8.376,8.376,0,0,0,1.987-2.106Z" transform="translate(-2 -3.849)" fill="#284573"/>
</svg>
