<svg xmlns="http://www.w3.org/2000/svg" width="18.879" height="18.879" viewBox="0 0 18.879 18.879">
  <path id="Tracé_10666" data-name="Tracé 10666" d="M1,10.439a9.439,9.439,0,1,1,9.439,9.439A9.439,9.439,0,0,1,1,10.439Zm9.439-8.091h-.067a8.419,8.419,0,0,1,.38.855,4.288,4.288,0,0,1,.1,3.274,2.654,2.654,0,0,1-1.956,1.47L8.8,7.972c-.611.157-.864.222-1.046.5-.17.259-.14.584.054,1.214l.044.141a6.585,6.585,0,0,1,.216.812,1.836,1.836,0,0,1-.14,1.185,2.035,2.035,0,0,1-.839.88,2.878,2.878,0,0,1-.9.283L6.1,13a1.477,1.477,0,0,0-.964.38,1.908,1.908,0,0,0-.366,1.041c-.027.2-.044.406-.06.614l-.009.111a5.343,5.343,0,0,1-.093.716l-.034.149A8.094,8.094,0,0,0,14.558,17.4a4.265,4.265,0,0,1-.348-.386,2.425,2.425,0,0,1-.59-1.9,2.174,2.174,0,0,1,.48-.965,6.715,6.715,0,0,1,.678-.7l.15-.137c.169-.154.314-.286.437-.416a1.781,1.781,0,0,0,.168-.2.4.4,0,0,0,.042-.071h0a.42.42,0,0,0-.113-.468c-.074-.057-.263-.142-.6.072-.131.083-.248.157-.342.212a1.329,1.329,0,0,1-.37.158.743.743,0,0,1-.476-.05.72.72,0,0,1-.379-.434.859.859,0,0,1-.038-.269c0-.057.005-.111.01-.151s.008-.068.012-.1a3.226,3.226,0,0,0-.077-1.325,6.222,6.222,0,0,0-.515-1.271c-.089-.179-.18-.36-.265-.556a2.176,2.176,0,0,1-.225-.993,1.392,1.392,0,0,1,.6-1.047,7.479,7.479,0,0,0,1.431-1.8c.223-.356.413-.688.548-.931l.031-.056A8.052,8.052,0,0,0,10.439,2.348Zm5.445,2.106c-.137.243-.314.548-.518.873A8.6,8.6,0,0,1,13.6,7.489a.329.329,0,0,0-.06.055,1.042,1.042,0,0,0,.114.364c.044.1.1.222.176.365A8.719,8.719,0,0,1,14.5,9.936a4.777,4.777,0,0,1,.148.919,1.728,1.728,0,0,1,1.634.246,1.766,1.766,0,0,1,.579,1.926,2.118,2.118,0,0,1-.525.808c-.159.167-.35.341-.524.5l-.126.115A5.439,5.439,0,0,0,15.15,15a.884.884,0,0,0-.2.354,1.115,1.115,0,0,0,.318.822,3.007,3.007,0,0,0,.327.348c.034.031.064.056.087.076a8.091,8.091,0,0,0,.2-12.148ZM2.348,10.439a8.053,8.053,0,0,0,1.062,4.01c.007-.067.015-.135.024-.2a3.185,3.185,0,0,1,.717-1.783,2.726,2.726,0,0,1,1.683-.784l.123-.021a1.6,1.6,0,0,0,.486-.139.694.694,0,0,0,.288-.319.533.533,0,0,0,.008-.331,5,5,0,0,0-.165-.608l-.056-.181a2.674,2.674,0,0,1,.109-2.352A2.691,2.691,0,0,1,8.4,6.68l.154-.038c.536-.138.853-.27,1.073-.738a2.989,2.989,0,0,0-.137-2.226,7.258,7.258,0,0,0-.44-.946c-.055-.1-.1-.18-.14-.24A8.093,8.093,0,0,0,2.348,10.439Z" transform="translate(-1 -1)" fill="#444"/>
</svg>
