<svg xmlns="http://www.w3.org/2000/svg" width="19.007" height="19.007" viewBox="0 0 19.007 19.007">
  <path id="Tracé_33" data-name="Tracé 33" d="M16.579,5.288h0a1.14,1.14,0,1,0,1.14,1.14A1.14,1.14,0,0,0,16.579,5.288Zm4.372,2.3a7.213,7.213,0,0,0-.437-2.309,4.7,4.7,0,0,0-1.1-1.682A4.467,4.467,0,0,0,17.729,2.5a6.938,6.938,0,0,0-2.309-.447C14.412,2,14.089,2,11.5,2S8.6,2,7.588,2.057A6.938,6.938,0,0,0,5.279,2.5,4.543,4.543,0,0,0,3.6,3.6,4.467,4.467,0,0,0,2.5,5.279a6.938,6.938,0,0,0-.447,2.309C2,8.6,2,8.919,2,11.5s0,2.908.057,3.916A6.938,6.938,0,0,0,2.5,17.729,4.467,4.467,0,0,0,3.6,19.411,4.543,4.543,0,0,0,5.279,20.5a6.938,6.938,0,0,0,2.309.447c1.007.057,1.331.057,3.916.057s2.908,0,3.916-.057a6.938,6.938,0,0,0,2.309-.447,4.467,4.467,0,0,0,1.682-1.093,4.609,4.609,0,0,0,1.1-1.682,7.213,7.213,0,0,0,.437-2.309c0-1.007.057-1.331.057-3.916S21.007,8.6,20.95,7.588ZM19.24,15.305a5.332,5.332,0,0,1-.323,1.768,2.908,2.908,0,0,1-.713,1.093,3.032,3.032,0,0,1-1.093.713,5.332,5.332,0,0,1-1.768.323c-.95.048-1.3.057-3.8.057s-2.851,0-3.8-.057A5.446,5.446,0,0,1,5.9,18.917,3.108,3.108,0,0,1,4.851,18.2a2.851,2.851,0,0,1-.7-1.093,5.265,5.265,0,0,1-.38-1.806c0-.95-.057-1.3-.057-3.8s0-2.851.057-3.8A5.265,5.265,0,0,1,4.1,5.9a2.851,2.851,0,0,1,.751-1.045A2.984,2.984,0,0,1,5.9,4.091,5.446,5.446,0,0,1,7.7,3.768c.95,0,1.3-.057,3.8-.057s2.851,0,3.8.057a5.332,5.332,0,0,1,1.768.323,2.908,2.908,0,0,1,1.131.76A2.908,2.908,0,0,1,18.917,5.9,5.332,5.332,0,0,1,19.24,7.7c.048.95.057,1.3.057,3.8S19.287,14.355,19.24,15.305ZM11.5,6.628A4.866,4.866,0,1,0,14.96,8.05,4.875,4.875,0,0,0,11.5,6.628Zm0,8.04A3.165,3.165,0,1,1,14.668,11.5,3.165,3.165,0,0,1,11.5,14.668Z" transform="translate(-2 -2)" fill="#284573"/>
</svg>
