<svg xmlns="http://www.w3.org/2000/svg" width="75.999" height="43.687" viewBox="0 0 75.999 43.687">
  <g id="Groupe_6177" data-name="Groupe 6177" transform="translate(-548.447 -378.313)">
    <path id="Tracé_10346" data-name="Tracé 10346" d="M632.568-365.469a21.683,21.683,0,0,0,21.683-21.682,21.683,21.683,0,0,0-21.683-21.682Z" transform="translate(-29.804 787.146)" fill="#18aab5"/>
    <path id="Tracé_10347" data-name="Tracé 10347" d="M641.259-454.174l-8.222-.141c0-.046,0-6.63-4.172-10.827-2.442-2.459-5.988-3.705-10.537-3.705-14.476,0-15.083,13.141-15.1,14.64L595-454.261c.032-7.889,4.948-22.809,23.328-22.809,6.862,0,12.395,2.088,16.442,6.206C641.354-464.168,641.266-454.579,641.259-454.174Z" transform="translate(-46.554 876.174)" fill="#58a345"/>
  </g>
</svg>
