<svg xmlns="http://www.w3.org/2000/svg" width="16.399" height="14.7" viewBox="0 0 16.399 14.7">
  <path id="_1077035" data-name="1077035" d="M7.7,13.7a.9.9,0,0,1-.6-.224c-.622-.544-1.222-1.055-1.751-1.506l0,0A32.567,32.567,0,0,1,1.527,8.38,5.732,5.732,0,0,1,0,4.628,4.813,4.813,0,0,1,1.222,1.341,4.141,4.141,0,0,1,4.3,0a3.873,3.873,0,0,1,2.42.835A4.95,4.95,0,0,1,7.7,1.857,4.951,4.951,0,0,1,8.678.835,3.873,3.873,0,0,1,11.1,0a4.141,4.141,0,0,1,3.08,1.341A4.813,4.813,0,0,1,15.4,4.628,5.731,5.731,0,0,1,13.872,8.38a32.56,32.56,0,0,1-3.823,3.588c-.53.452-1.131.964-1.754,1.509A.9.9,0,0,1,7.7,13.7ZM4.3.9a3.249,3.249,0,0,0-2.417,1.05A3.915,3.915,0,0,0,.9,4.628,4.823,4.823,0,0,0,2.222,7.8a32.047,32.047,0,0,0,3.714,3.478l0,0c.531.453,1.133.966,1.76,1.514.63-.549,1.233-1.063,1.766-1.516A32.053,32.053,0,0,0,13.178,7.8,4.823,4.823,0,0,0,14.5,4.628a3.915,3.915,0,0,0-.983-2.676A3.249,3.249,0,0,0,11.1.9a2.992,2.992,0,0,0-1.868.647,4.377,4.377,0,0,0-1.041,1.2.569.569,0,0,1-.978,0,4.373,4.373,0,0,0-1.041-1.2A2.992,2.992,0,0,0,4.3.9Zm0,0" transform="translate(0.5 0.5)" fill="#e4e4e4" stroke="#e4e4e4" stroke-width="1"/>
</svg>
