<svg xmlns="http://www.w3.org/2000/svg" width="17.282" height="20.736" viewBox="0 0 17.282 20.736">
  <path id="surface1" d="M8.267,4,9.7,8.7v3.05h1.189V8.536L12.289,4H11.074l-.756,3.105h-.054L9.482,4Zm5.562,1.89a1.666,1.666,0,0,0-1.161.4,1.352,1.352,0,0,0-.432,1.053v2.97a1.6,1.6,0,0,0,.432,1.16,1.466,1.466,0,0,0,1.107.432,1.443,1.443,0,0,0,1.539-1.566V7.375A1.392,1.392,0,0,0,13.829,5.89Zm2.4.134V10.83a1.241,1.241,0,0,0,.189.756.658.658,0,0,0,.567.243,1.122,1.122,0,0,0,.594-.162,2.385,2.385,0,0,0,.62-.54v.621h1.053V6.025H18.2v4.347a1.474,1.474,0,0,1-.324.324.534.534,0,0,1-.3.108.243.243,0,0,1-.216-.081.5.5,0,0,1-.081-.3v-4.4Zm-2.457.864A.507.507,0,0,1,14.125,7a.354.354,0,0,1,.109.3v3.132a.458.458,0,0,1-.109.352.479.479,0,0,1-.351.135.418.418,0,0,1-.324-.135.493.493,0,0,1-.108-.351V7.293A.376.376,0,0,1,13.45,7a.45.45,0,0,1,.324-.108ZM13.64,13.1c-2.052,0-4.053.024-6.021.108A2.513,2.513,0,0,0,5.108,15.69Q4.991,17.307,5,18.93q-.012,1.608.108,3.213a2.51,2.51,0,0,0,2.511,2.484c1.968.081,3.969.111,6.021.108q3.011.01,6.021-.108a2.51,2.51,0,0,0,2.511-2.484c.081-1.08.111-2.137.108-3.213s-.028-2.162-.108-3.24a2.512,2.512,0,0,0-2.511-2.484q-3.009-.118-6.021-.108ZM6.349,14.88H9.968a.1.1,0,0,1,.108.108V16.1a.1.1,0,0,1-.108.108H8.861V22.63a.1.1,0,0,1-.108.108H7.565c-.064,0-.136-.044-.136-.108V16.2H6.349c-.064,0-.135-.043-.135-.108V14.989c0-.064.071-.108.136-.108Zm7.614,0h1.053c.064,0,.135.043.135.108v2.16a1.368,1.368,0,0,1,.27-.189,1.138,1.138,0,0,1,.54-.162.955.955,0,0,1,.836.406,1.94,1.94,0,0,1,.3,1.134v3.132a1.6,1.6,0,0,1-.27,1,.96.96,0,0,1-.81.351,1.28,1.28,0,0,1-.594-.135,1.4,1.4,0,0,1-.27-.189v.136c0,.064-.071.108-.135.108H13.964a.1.1,0,0,1-.108-.108V14.988A.1.1,0,0,1,13.964,14.88Zm5.4,1.836a1.53,1.53,0,0,1,1.188.486,1.865,1.865,0,0,1,.432,1.3v1.458c0,.064-.071.108-.135.108h-1.89v.944a1.109,1.109,0,0,0,.081.54.29.29,0,0,0,.27.136.322.322,0,0,0,.27-.108,1.118,1.118,0,0,0,.081-.568v-.4a.1.1,0,0,1,.108-.108h1.08a.1.1,0,0,1,.108.108v.432a2,2,0,0,1-.405,1.376,1.625,1.625,0,0,1-1.269.486,1.544,1.544,0,0,1-1.215-.513,1.988,1.988,0,0,1-.432-1.35V18.5a1.753,1.753,0,0,1,.486-1.268A1.666,1.666,0,0,1,19.363,16.716Zm-9.422.162h1.053c.064,0,.135.044.135.108v4.32c0,.142.01.2.027.216s.02.054.108.054a.553.553,0,0,0,.243-.108,1.22,1.22,0,0,0,.27-.244V16.985a.1.1,0,0,1,.108-.108h1.053a.1.1,0,0,1,.107.108v5.643h.028c0,.064-.071.108-.135.108H11.884a.1.1,0,0,1-.107-.108V22.3a2.1,2.1,0,0,1-.432.324,1.332,1.332,0,0,1-.675.188.71.71,0,0,1-.622-.3,1.344,1.344,0,0,1-.216-.81V16.985a.1.1,0,0,1,.109-.108Zm5.589,1.053a.4.4,0,0,0-.244.054.474.474,0,0,0-.135.108v3.428a.684.684,0,0,0,.162.136.515.515,0,0,0,.216.026c.135,0,.175-.036.188-.054a.563.563,0,0,0,.054-.324V18.389a.583.583,0,0,0-.081-.351.264.264,0,0,0-.162-.108Zm3.78.027a.317.317,0,0,0-.27.108.769.769,0,0,0-.081.432v.46h.7V18.5a.7.7,0,0,0-.108-.432.271.271,0,0,0-.244-.108Z" transform="translate(-4.999 -4)" fill="#284573"/>
</svg>
