<svg xmlns="http://www.w3.org/2000/svg" width="19.226" height="19.225" viewBox="0 0 19.226 19.225">
  <g id="Groupe_5852" data-name="Groupe 5852" transform="translate(-1.854 -1.854)">
    <path id="Tracé_10667" data-name="Tracé 10667" d="M9.455,17.057a7.6,7.6,0,1,1,7.6-7.6A7.61,7.61,0,0,1,9.455,17.057Zm0-13.683a6.081,6.081,0,1,0,6.081,6.081A6.088,6.088,0,0,0,9.455,3.374Z" transform="translate(0 0)" fill="#444"/>
    <path id="Tracé_10668" data-name="Tracé 10668" d="M24.061,24.821a.758.758,0,0,1-.537-.223L17.675,18.75a.76.76,0,0,1,1.075-1.075L24.6,23.523a.759.759,0,0,1-.537,1.3Z" transform="translate(-3.741 -3.741)" fill="#444"/>
  </g>
</svg>
